solid box
  facet normal    0.000000e+00    0.000000e+00   -1.000000e+00
    outer loop
      vertex   0.000000e+00   0.000000e+00   0.000000e+00
      vertex   1.000000e+00   1.000000e+00   0.000000e+00
      vertex   1.000000e+00   0.000000e+00   0.000000e+00
    endloop
  endfacet
  facet normal    0.000000e+00    0.000000e+00   -1.000000e+00
    outer loop
      vertex   0.000000e+00   0.000000e+00   0.000000e+00
      vertex   6.123234e-17   1.000000e+00   0.000000e+00
      vertex   1.000000e+00   1.000000e+00   0.000000e+00
    endloop
  endfacet
  facet normal    0.000000e+00   -1.000000e+00    0.000000e+00
    outer loop
      vertex   0.000000e+00   0.000000e+00   0.000000e+00
      vertex   1.000000e+00   0.000000e+00   0.000000e+00
      vertex   1.000000e+00   0.000000e+00   1.000000e+00
    endloop
  endfacet
  facet normal    0.000000e+00   -1.000000e+00    0.000000e+00
    outer loop
      vertex   0.000000e+00   0.000000e+00   0.000000e+00
      vertex   1.000000e+00   0.000000e+00   1.000000e+00
      vertex   0.000000e+00   0.000000e+00   1.000000e+00
    endloop
  endfacet
  facet normal   -1.000000e+00    6.123234e-17    0.000000e+00
    outer loop
      vertex   0.000000e+00   0.000000e+00   0.000000e+00
      vertex   0.000000e+00   0.000000e+00   1.000000e+00
      vertex   6.123234e-17   1.000000e+00   0.000000e+00
    endloop
  endfacet
  facet normal   -1.000000e+00    6.123234e-17    0.000000e+00
    outer loop
      vertex   6.123234e-17   1.000000e+00   0.000000e+00
      vertex   0.000000e+00   0.000000e+00   1.000000e+00
      vertex   6.123234e-17   1.000000e+00   1.000000e+00
    endloop
  endfacet
  facet normal    1.000000e+00    0.000000e+00    0.000000e+00
    outer loop
      vertex   1.000000e+00   0.000000e+00   0.000000e+00
      vertex   1.000000e+00   1.000000e+00   0.000000e+00
      vertex   1.000000e+00   0.000000e+00   1.000000e+00
    endloop
  endfacet
  facet normal    1.000000e+00    0.000000e+00   -0.000000e+00
    outer loop
      vertex   1.000000e+00   1.000000e+00   0.000000e+00
      vertex   1.000000e+00   1.000000e+00   1.000000e+00
      vertex   1.000000e+00   0.000000e+00   1.000000e+00
    endloop
  endfacet
  facet normal    0.000000e+00    1.000000e+00    0.000000e+00
    outer loop
      vertex   1.000000e+00   1.000000e+00   0.000000e+00
      vertex   6.123234e-17   1.000000e+00   0.000000e+00
      vertex   6.123234e-17   1.000000e+00   1.000000e+00
    endloop
  endfacet
  facet normal    0.000000e+00    1.000000e+00   -0.000000e+00
    outer loop
      vertex   1.000000e+00   1.000000e+00   0.000000e+00
      vertex   6.123234e-17   1.000000e+00   1.000000e+00
      vertex   1.000000e+00   1.000000e+00   1.000000e+00
    endloop
  endfacet
  facet normal    0.000000e+00    0.000000e+00    1.000000e+00
    outer loop
      vertex   0.000000e+00   0.000000e+00   1.000000e+00
      vertex   1.000000e+00   0.000000e+00   1.000000e+00
      vertex   1.000000e+00   1.000000e+00   1.000000e+00
    endloop
  endfacet
  facet normal    0.000000e+00    0.000000e+00    1.000000e+00
    outer loop
      vertex   0.000000e+00   0.000000e+00   1.000000e+00
      vertex   1.000000e+00   1.000000e+00   1.000000e+00
      vertex   6.123234e-17   1.000000e+00   1.000000e+00
    endloop
  endfacet
endsolid box
