solid sidewinder_pofacets
  facet normal    0.000000e+00   -0.000000e+00   -1.000000e+00
    outer loop
      vertex   1.300000e-01   1.300000e-01   0.000000e+00
      vertex   1.300000e-01   0.000000e+00   0.000000e+00
      vertex   0.000000e+00   0.000000e+00   0.000000e+00
    endloop
  endfacet
  facet normal    0.000000e+00    0.000000e+00   -1.000000e+00
    outer loop
      vertex   0.000000e+00   0.000000e+00   0.000000e+00
      vertex   0.000000e+00   1.300000e-01   0.000000e+00
      vertex   1.300000e-01   1.300000e-01   0.000000e+00
    endloop
  endfacet
  facet normal    1.000000e+00    0.000000e+00   -0.000000e+00
    outer loop
      vertex   1.300000e-01   1.300000e-01   0.000000e+00
      vertex   1.300000e-01   1.300000e-01   2.570000e+00
      vertex   1.300000e-01   0.000000e+00   2.570000e+00
    endloop
  endfacet
  facet normal    1.000000e+00    0.000000e+00    0.000000e+00
    outer loop
      vertex   1.300000e-01   0.000000e+00   2.570000e+00
      vertex   1.300000e-01   0.000000e+00   0.000000e+00
      vertex   1.300000e-01   1.300000e-01   0.000000e+00
    endloop
  endfacet
  facet normal    0.000000e+00    1.000000e+00    0.000000e+00
    outer loop
      vertex   0.000000e+00   1.300000e-01   0.000000e+00
      vertex   0.000000e+00   1.300000e-01   2.570000e+00
      vertex   1.300000e-01   1.300000e-01   2.570000e+00
    endloop
  endfacet
  facet normal    0.000000e+00    1.000000e+00    0.000000e+00
    outer loop
      vertex   1.300000e-01   1.300000e-01   2.570000e+00
      vertex   1.300000e-01   1.300000e-01   0.000000e+00
      vertex   0.000000e+00   1.300000e-01   0.000000e+00
    endloop
  endfacet
  facet normal   -1.000000e+00    0.000000e+00    0.000000e+00
    outer loop
      vertex   0.000000e+00   1.300000e-01   0.000000e+00
      vertex   0.000000e+00   0.000000e+00   0.000000e+00
      vertex   0.000000e+00   0.000000e+00   2.570000e+00
    endloop
  endfacet
  facet normal   -1.000000e+00    0.000000e+00    0.000000e+00
    outer loop
      vertex   0.000000e+00   0.000000e+00   2.570000e+00
      vertex   0.000000e+00   1.300000e-01   2.570000e+00
      vertex   0.000000e+00   1.300000e-01   0.000000e+00
    endloop
  endfacet
  facet normal    0.000000e+00   -1.000000e+00    0.000000e+00
    outer loop
      vertex   1.300000e-01   0.000000e+00   0.000000e+00
      vertex   1.300000e-01   0.000000e+00   2.570000e+00
      vertex   0.000000e+00   0.000000e+00   2.570000e+00
    endloop
  endfacet
  facet normal    0.000000e+00   -1.000000e+00    0.000000e+00
    outer loop
      vertex   0.000000e+00   0.000000e+00   2.570000e+00
      vertex   0.000000e+00   0.000000e+00   0.000000e+00
      vertex   1.300000e-01   0.000000e+00   0.000000e+00
    endloop
  endfacet
  facet normal    7.071068e-01    7.071068e-01   -0.000000e+00
    outer loop
      vertex   1.300000e-01   0.000000e+00   0.000000e+00
      vertex   6.500000e-02   6.500000e-02   2.870000e+00
      vertex   1.300000e-01   0.000000e+00   2.570000e+00
    endloop
  endfacet
  facet normal   -0.000000e+00    9.773231e-01    2.117533e-01
    outer loop
      vertex   0.000000e+00   1.300000e-01   2.570000e+00
      vertex   6.500000e-02   6.500000e-02   2.870000e+00
      vertex   1.300000e-01   1.300000e-01   2.570000e+00
    endloop
  endfacet
  facet normal   -9.773231e-01    0.000000e+00    2.117533e-01
    outer loop
      vertex   0.000000e+00   0.000000e+00   2.570000e+00
      vertex   6.500000e-02   6.500000e-02   2.870000e+00
      vertex   0.000000e+00   1.300000e-01   2.570000e+00
    endloop
  endfacet
  facet normal    0.000000e+00   -9.773231e-01    2.117533e-01
    outer loop
      vertex   0.000000e+00   0.000000e+00   2.570000e+00
      vertex   1.300000e-01   0.000000e+00   2.570000e+00
      vertex   6.500000e-02   6.500000e-02   2.870000e+00
    endloop
  endfacet
  facet normal    0.000000e+00    1.000000e+00    0.000000e+00
    outer loop
      vertex   1.300000e-01   6.500000e-02   0.000000e+00
      vertex   1.300000e-01   6.500000e-02   2.000000e-01
      vertex   3.800000e-01   6.500000e-02   1.500000e-01
    endloop
  endfacet
  facet normal    0.000000e+00    1.000000e+00    0.000000e+00
    outer loop
      vertex   3.800000e-01   6.500000e-02   1.500000e-01
      vertex   3.800000e-01   6.500000e-02   0.000000e+00
      vertex   1.300000e-01   6.500000e-02   0.000000e+00
    endloop
  endfacet
  facet normal    1.000000e+00    0.000000e+00    0.000000e+00
    outer loop
      vertex   6.500000e-02   3.850000e-01   1.500000e-01
      vertex   6.500000e-02   1.300000e-01   2.000000e-01
      vertex   6.500000e-02   1.300000e-01   0.000000e+00
    endloop
  endfacet
  facet normal    1.000000e+00    0.000000e+00    0.000000e+00
    outer loop
      vertex   6.500000e-02   1.300000e-01   0.000000e+00
      vertex   6.500000e-02   3.850000e-01   0.000000e+00
      vertex   6.500000e-02   3.850000e-01   1.500000e-01
    endloop
  endfacet
  facet normal   -0.000000e+00    1.000000e+00    0.000000e+00
    outer loop
      vertex  -2.500000e-01   6.500000e-02   1.500000e-01
      vertex   0.000000e+00   6.500000e-02   2.000000e-01
      vertex   0.000000e+00   6.500000e-02   0.000000e+00
    endloop
  endfacet
  facet normal    0.000000e+00    1.000000e+00    0.000000e+00
    outer loop
      vertex   0.000000e+00   6.500000e-02   0.000000e+00
      vertex  -2.500000e-01   6.500000e-02   0.000000e+00
      vertex  -2.500000e-01   6.500000e-02   1.500000e-01
    endloop
  endfacet
  facet normal    1.000000e+00    0.000000e+00   -0.000000e+00
    outer loop
      vertex   6.500000e-02   0.000000e+00   0.000000e+00
      vertex   6.500000e-02   0.000000e+00   2.000000e-01
      vertex   6.500000e-02  -2.500000e-01   1.500000e-01
    endloop
  endfacet
  facet normal    1.000000e+00    0.000000e+00    0.000000e+00
    outer loop
      vertex   6.500000e-02  -2.500000e-01   1.500000e-01
      vertex   6.500000e-02  -2.500000e-01   0.000000e+00
      vertex   6.500000e-02   0.000000e+00   0.000000e+00
    endloop
  endfacet
  facet normal    0.000000e+00    1.000000e+00    0.000000e+00
    outer loop
      vertex   1.300000e-01   6.500000e-02   2.200000e+00
      vertex   1.300000e-01   6.500000e-02   2.400000e+00
      vertex   3.800000e-01   6.500000e-02   2.200000e+00
    endloop
  endfacet
  facet normal    1.000000e+00    0.000000e+00    0.000000e+00
    outer loop
      vertex   6.500000e-02   1.300000e-01   2.200000e+00
      vertex   6.500000e-02   3.800000e-01   2.200000e+00
      vertex   6.500000e-02   1.300000e-01   2.400000e+00
    endloop
  endfacet
  facet normal    0.000000e+00    1.000000e+00   -0.000000e+00
    outer loop
      vertex   0.000000e+00   6.500000e-02   2.200000e+00
      vertex  -3.800000e-01   6.500000e-02   2.200000e+00
      vertex   0.000000e+00   6.500000e-02   2.400000e+00
    endloop
  endfacet
  facet normal    1.000000e+00    0.000000e+00   -0.000000e+00
    outer loop
      vertex   6.500000e-02   0.000000e+00   2.200000e+00
      vertex   6.500000e-02   0.000000e+00   2.400000e+00
      vertex   6.500000e-02  -3.800000e-01   2.200000e+00
    endloop
  endfacet
endsolid sidewinder_pofacets
