solid OBJECT
  facet normal 0 1 0
    outer loop
      vertex 0 0 0
      vertex 0.5 0 0
      vertex 0 0 -0.5
    endloop
  endfacet
  facet normal -0 1 0
    outer loop
      vertex 0 0 -0.5
      vertex 0.5 0 -1
      vertex 0 0 -1
    endloop
  endfacet
  facet normal -0 1 0
    outer loop
      vertex 1 0 -1
      vertex 0.5 0 -1
      vertex 1 0 -0.5
    endloop
  endfacet
  facet normal 0 1 0
    outer loop
      vertex 1 0 -0.5
      vertex 0.5 0 0
      vertex 1 0 0
    endloop
  endfacet
  facet normal 0 1 -0
    outer loop
      vertex 0.5 0 0
      vertex 1 0 -0.5
      vertex 0 0 -0.5
    endloop
  endfacet
  facet normal -0 1 -0
    outer loop
      vertex 0 0 -0.5
      vertex 1 0 -0.5
      vertex 0.5 0 -1
    endloop
  endfacet
  facet normal 0 0 -1
    outer loop
      vertex 0 0 -1
      vertex 0.5 0 -1
      vertex 0 -0.5 -1
    endloop
  endfacet
  facet normal 0 0 -1
    outer loop
      vertex 0 -0.5 -1
      vertex 0.5 -1 -1
      vertex 0 -1 -1
    endloop
  endfacet
  facet normal -0 -0 -1
    outer loop
      vertex 1 -1 -1
      vertex 0.5 -1 -1
      vertex 1 -0.5 -1
    endloop
  endfacet
  facet normal -0 -0 -1
    outer loop
      vertex 1 -0.5 -1
      vertex 0.5 0 -1
      vertex 1 0 -1
    endloop
  endfacet
  facet normal -0 0 -1
    outer loop
      vertex 0.5 0 -1
      vertex 1 -0.5 -1
      vertex 0 -0.5 -1
    endloop
  endfacet
  facet normal 0 0 -1
    outer loop
      vertex 0 -0.5 -1
      vertex 1 -0.5 -1
      vertex 0.5 -1 -1
    endloop
  endfacet
  facet normal -0 -1 0
    outer loop
      vertex 0 -1 -1
      vertex 0.5 -1 -1
      vertex 0 -1 -0.5
    endloop
  endfacet
  facet normal 0 -1 0
    outer loop
      vertex 0 -1 -0.5
      vertex 0.5 -1 0
      vertex 0 -1 0
    endloop
  endfacet
  facet normal 0 -1 0
    outer loop
      vertex 1 -1 0
      vertex 0.5 -1 0
      vertex 1 -1 -0.5
    endloop
  endfacet
  facet normal -0 -1 0
    outer loop
      vertex 1 -1 -0.5
      vertex 0.5 -1 -1
      vertex 1 -1 -1
    endloop
  endfacet
  facet normal -0 -1 -0
    outer loop
      vertex 0.5 -1 -1
      vertex 1 -1 -0.5
      vertex 0 -1 -0.5
    endloop
  endfacet
  facet normal 0 -1 -0
    outer loop
      vertex 0 -1 -0.5
      vertex 1 -1 -0.5
      vertex 0.5 -1 0
    endloop
  endfacet
  facet normal -0 0 1
    outer loop
      vertex 0 -1 0
      vertex 0.5 -1 0
      vertex 0 -0.5 0
    endloop
  endfacet
  facet normal -0 0 1
    outer loop
      vertex 0 -0.5 0
      vertex 0.5 0 0
      vertex 0 0 0
    endloop
  endfacet
  facet normal 0 -0 1
    outer loop
      vertex 1 0 0
      vertex 0.5 0 0
      vertex 1 -0.5 0
    endloop
  endfacet
  facet normal 0 -0 1
    outer loop
      vertex 1 -0.5 0
      vertex 0.5 -1 0
      vertex 1 -1 0
    endloop
  endfacet
  facet normal 0 0 1
    outer loop
      vertex 0.5 -1 0
      vertex 1 -0.5 0
      vertex 0 -0.5 0
    endloop
  endfacet
  facet normal -0 0 1
    outer loop
      vertex 0 -0.5 0
      vertex 1 -0.5 0
      vertex 0.5 0 0
    endloop
  endfacet
  facet normal -1 -0 -0
    outer loop
      vertex 0 0 -1
      vertex 0 -0.5 -1
      vertex 0 0 -0.5
    endloop
  endfacet
  facet normal -1 -0 -0
    outer loop
      vertex 0 0 -0.5
      vertex 0 -0.5 0
      vertex 0 0 0
    endloop
  endfacet
  facet normal -1 0 -0
    outer loop
      vertex 0 -1 -1
      vertex 0 -1 -0.5
      vertex 0 -0.5 -1
    endloop
  endfacet
  facet normal -1 0 0
    outer loop
      vertex 0 -1 0
      vertex 0 -0.5 0
      vertex 0 -1 -0.5
    endloop
  endfacet
  facet normal -1 0 -0
    outer loop
      vertex 0 -0.5 -1
      vertex 0 -1 -0.5
      vertex 0 0 -0.5
    endloop
  endfacet
  facet normal -1 -0 -0
    outer loop
      vertex 0 0 -0.5
      vertex 0 -1 -0.5
      vertex 0 -0.5 0
    endloop
  endfacet
  facet normal 1 0 -0
    outer loop
      vertex 1 0 0
      vertex 1 -0.5 0
      vertex 1 0 -0.5
    endloop
  endfacet
  facet normal 1 0 -0
    outer loop
      vertex 1 0 -0.5
      vertex 1 -0.5 -1
      vertex 1 0 -1
    endloop
  endfacet
  facet normal 1 0 -0
    outer loop
      vertex 1 -0.5 -1
      vertex 1 -1 -0.5
      vertex 1 -1 -1
    endloop
  endfacet
  facet normal 1 -0 0
    outer loop
      vertex 1 -1 -0.5
      vertex 1 -0.5 0
      vertex 1 -1 0
    endloop
  endfacet
  facet normal 1 -0 -0
    outer loop
      vertex 1 -0.5 0
      vertex 1 -1 -0.5
      vertex 1 0 -0.5
    endloop
  endfacet
  facet normal 1 0 -0
    outer loop
      vertex 1 0 -0.5
      vertex 1 -1 -0.5
      vertex 1 -0.5 -1
    endloop
  endfacet
  facet normal 0 1 0
    outer loop
      vertex 3 0 0
      vertex 3.5 0 0
      vertex 3 0 -0.5
    endloop
  endfacet
  facet normal -0 1 0
    outer loop
      vertex 3 0 -0.5
      vertex 3.5 0 -1
      vertex 3 0 -1
    endloop
  endfacet
  facet normal -0 1 0
    outer loop
      vertex 4 0 -1
      vertex 3.5 0 -1
      vertex 4 0 -0.5
    endloop
  endfacet
  facet normal 0 1 0
    outer loop
      vertex 4 0 -0.5
      vertex 3.5 0 0
      vertex 4 0 0
    endloop
  endfacet
  facet normal 0 1 -0
    outer loop
      vertex 3.5 0 0
      vertex 4 0 -0.5
      vertex 3 0 -0.5
    endloop
  endfacet
  facet normal -0 1 -0
    outer loop
      vertex 3 0 -0.5
      vertex 4 0 -0.5
      vertex 3.5 0 -1
    endloop
  endfacet
  facet normal 0 0 -1
    outer loop
      vertex 3 0 -1
      vertex 3.5 0 -1
      vertex 3 -0.5 -1
    endloop
  endfacet
  facet normal 0 0 -1
    outer loop
      vertex 3 -0.5 -1
      vertex 3.5 -1 -1
      vertex 3 -1 -1
    endloop
  endfacet
  facet normal -0 -0 -1
    outer loop
      vertex 4 -1 -1
      vertex 3.5 -1 -1
      vertex 4 -0.5 -1
    endloop
  endfacet
  facet normal -0 -0 -1
    outer loop
      vertex 4 -0.5 -1
      vertex 3.5 0 -1
      vertex 4 0 -1
    endloop
  endfacet
  facet normal -0 0 -1
    outer loop
      vertex 3.5 0 -1
      vertex 4 -0.5 -1
      vertex 3 -0.5 -1
    endloop
  endfacet
  facet normal 0 0 -1
    outer loop
      vertex 3 -0.5 -1
      vertex 4 -0.5 -1
      vertex 3.5 -1 -1
    endloop
  endfacet
  facet normal -0 -1 0
    outer loop
      vertex 3 -1 -1
      vertex 3.5 -1 -1
      vertex 3 -1 -0.5
    endloop
  endfacet
  facet normal 0 -1 0
    outer loop
      vertex 3 -1 -0.5
      vertex 3.5 -1 0
      vertex 3 -1 0
    endloop
  endfacet
  facet normal 0 -1 0
    outer loop
      vertex 4 -1 0
      vertex 3.5 -1 0
      vertex 4 -1 -0.5
    endloop
  endfacet
  facet normal -0 -1 0
    outer loop
      vertex 4 -1 -0.5
      vertex 3.5 -1 -1
      vertex 4 -1 -1
    endloop
  endfacet
  facet normal -0 -1 -0
    outer loop
      vertex 3.5 -1 -1
      vertex 4 -1 -0.5
      vertex 3 -1 -0.5
    endloop
  endfacet
  facet normal 0 -1 -0
    outer loop
      vertex 3 -1 -0.5
      vertex 4 -1 -0.5
      vertex 3.5 -1 0
    endloop
  endfacet
  facet normal -0 0 1
    outer loop
      vertex 3 -1 0
      vertex 3.5 -1 0
      vertex 3 -0.5 0
    endloop
  endfacet
  facet normal -0 0 1
    outer loop
      vertex 3 -0.5 0
      vertex 3.5 0 0
      vertex 3 0 0
    endloop
  endfacet
  facet normal 0 -0 1
    outer loop
      vertex 4 0 0
      vertex 3.5 0 0
      vertex 4 -0.5 0
    endloop
  endfacet
  facet normal 0 -0 1
    outer loop
      vertex 4 -0.5 0
      vertex 3.5 -1 0
      vertex 4 -1 0
    endloop
  endfacet
  facet normal 0 0 1
    outer loop
      vertex 3.5 -1 0
      vertex 4 -0.5 0
      vertex 3 -0.5 0
    endloop
  endfacet
  facet normal -0 0 1
    outer loop
      vertex 3 -0.5 0
      vertex 4 -0.5 0
      vertex 3.5 0 0
    endloop
  endfacet
  facet normal -1 -0 -0
    outer loop
      vertex 3 0 -1
      vertex 3 -0.5 -1
      vertex 3 0 -0.5
    endloop
  endfacet
  facet normal -1 -0 -0
    outer loop
      vertex 3 0 -0.5
      vertex 3 -0.5 0
      vertex 3 0 0
    endloop
  endfacet
  facet normal -1 0 -0
    outer loop
      vertex 3 -1 -1
      vertex 3 -1 -0.5
      vertex 3 -0.5 -1
    endloop
  endfacet
  facet normal -1 0 0
    outer loop
      vertex 3 -1 0
      vertex 3 -0.5 0
      vertex 3 -1 -0.5
    endloop
  endfacet
  facet normal -1 0 -0
    outer loop
      vertex 3 -0.5 -1
      vertex 3 -1 -0.5
      vertex 3 0 -0.5
    endloop
  endfacet
  facet normal -1 -0 -0
    outer loop
      vertex 3 0 -0.5
      vertex 3 -1 -0.5
      vertex 3 -0.5 0
    endloop
  endfacet
  facet normal 1 0 -0
    outer loop
      vertex 4 0 0
      vertex 4 -0.5 0
      vertex 4 0 -0.5
    endloop
  endfacet
  facet normal 1 0 -0
    outer loop
      vertex 4 0 -0.5
      vertex 4 -0.5 -1
      vertex 4 0 -1
    endloop
  endfacet
  facet normal 1 0 -0
    outer loop
      vertex 4 -0.5 -1
      vertex 4 -1 -0.5
      vertex 4 -1 -1
    endloop
  endfacet
  facet normal 1 -0 0
    outer loop
      vertex 4 -1 -0.5
      vertex 4 -0.5 0
      vertex 4 -1 0
    endloop
  endfacet
  facet normal 1 -0 -0
    outer loop
      vertex 4 -0.5 0
      vertex 4 -1 -0.5
      vertex 4 0 -0.5
    endloop
  endfacet
  facet normal 1 0 -0
    outer loop
      vertex 4 0 -0.5
      vertex 4 -1 -0.5
      vertex 4 -0.5 -1
    endloop
  endfacet
endsolid OBJECT
