solid component1:solid1
  facet normal 0.000000e+00 -0.000000e+00 1.000000e+00
    outer loop
      vertex 5.000000e+00 -5.000000e+00 0.000000e+00
      vertex -5.000000e+00 5.000000e+00 0.000000e+00
      vertex -5.000000e+00 -5.000000e+00 0.000000e+00
    endloop
  endfacet
  facet normal 0.000000e+00 -0.000000e+00 1.000000e+00
    outer loop
      vertex 5.000000e+00 5.000000e+00 0.000000e+00
      vertex -5.000000e+00 5.000000e+00 0.000000e+00
      vertex 5.000000e+00 -5.000000e+00 0.000000e+00
    endloop
  endfacet
endsolid component1:solid1
