solid OBJECT
  facet normal -0.000000e+000 0.000000e+000 1.000000e+000
    outer loop
      vertex -2.500000e+000 9.950000e+000 0.000000e+000
      vertex -1.971882e+000 1.005000e+001 0.000000e+000
      vertex -2.500000e+000 1.005000e+001 0.000000e+000
    endloop
  endfacet
  facet normal 0.000000e+000 0.000000e+000 1.000000e+000
    outer loop
      vertex -1.971082e+000 9.950000e+000 0.000000e+000
      vertex -1.300062e+000 1.005000e+001 0.000000e+000
      vertex -1.971882e+000 1.005000e+001 0.000000e+000
    endloop
  endfacet
  facet normal 0.000000e+000 0.000000e+000 1.000000e+000
    outer loop
      vertex 1.971882e+000 9.950000e+000 0.000000e+000
      vertex 2.500000e+000 1.005000e+001 0.000000e+000
      vertex 1.971082e+000 1.005000e+001 0.000000e+000
    endloop
  endfacet
  facet normal 0.000000e+000 0.000000e+000 1.000000e+000
    outer loop
      vertex 1.300062e+000 9.950000e+000 0.000000e+000
      vertex 1.971082e+000 1.005000e+001 0.000000e+000
      vertex 1.298805e+000 1.005000e+001 0.000000e+000
    endloop
  endfacet
  facet normal -0.000000e+000 0.000000e+000 1.000000e+000
    outer loop
      vertex 1.971882e+000 9.950000e+000 0.000000e+000
      vertex 2.500000e+000 9.950000e+000 0.000000e+000
      vertex 2.500000e+000 1.005000e+001 0.000000e+000
    endloop
  endfacet
  facet normal 0.000000e+000 0.000000e+000 1.000000e+000
    outer loop
      vertex 4.626856e-001 9.950000e+000 0.000000e+000
      vertex 1.298805e+000 1.005000e+001 0.000000e+000
      vertex 4.624420e-001 1.005000e+001 0.000000e+000
    endloop
  endfacet
  facet normal -0.000000e+000 0.000000e+000 1.000000e+000
    outer loop
      vertex 1.300062e+000 9.950000e+000 0.000000e+000
      vertex 1.971882e+000 9.950000e+000 0.000000e+000
      vertex 1.971082e+000 1.005000e+001 0.000000e+000
    endloop
  endfacet
  facet normal 0.000000e+000 0.000000e+000 1.000000e+000
    outer loop
      vertex -4.624420e-001 9.950000e+000 0.000000e+000
      vertex 4.624420e-001 1.005000e+001 0.000000e+000
      vertex -4.626856e-001 1.005000e+001 0.000000e+000
    endloop
  endfacet
  facet normal -0.000000e+000 0.000000e+000 1.000000e+000
    outer loop
      vertex 4.626856e-001 9.950000e+000 0.000000e+000
      vertex 1.300062e+000 9.950000e+000 0.000000e+000
      vertex 1.298805e+000 1.005000e+001 0.000000e+000
    endloop
  endfacet
  facet normal 0.000000e+000 0.000000e+000 1.000000e+000
    outer loop
      vertex -1.298805e+000 9.950000e+000 0.000000e+000
      vertex -4.626856e-001 1.005000e+001 0.000000e+000
      vertex -1.300062e+000 1.005000e+001 0.000000e+000
    endloop
  endfacet
  facet normal -0.000000e+000 0.000000e+000 1.000000e+000
    outer loop
      vertex -4.624420e-001 9.950000e+000 0.000000e+000
      vertex 4.626856e-001 9.950000e+000 0.000000e+000
      vertex 4.624420e-001 1.005000e+001 0.000000e+000
    endloop
  endfacet
  facet normal -0.000000e+000 0.000000e+000 1.000000e+000
    outer loop
      vertex -1.298805e+000 9.950000e+000 0.000000e+000
      vertex -4.624420e-001 9.950000e+000 0.000000e+000
      vertex -4.626856e-001 1.005000e+001 0.000000e+000
    endloop
  endfacet
  facet normal -0.000000e+000 -0.000000e+000 1.000000e+000
    outer loop
      vertex -1.971082e+000 9.950000e+000 0.000000e+000
      vertex -1.971882e+000 1.005000e+001 0.000000e+000
      vertex -2.500000e+000 9.950000e+000 0.000000e+000
    endloop
  endfacet
  facet normal -0.000000e+000 0.000000e+000 1.000000e+000
    outer loop
      vertex -1.971082e+000 9.950000e+000 0.000000e+000
      vertex -1.298805e+000 9.950000e+000 0.000000e+000
      vertex -1.300062e+000 1.005000e+001 0.000000e+000
    endloop
  endfacet
  facet normal -0.000000e+000 0.000000e+000 1.000000e+000
    outer loop
      vertex -2.500000e+000 7.950000e+000 0.000000e+000
      vertex -1.971882e+000 8.050000e+000 0.000000e+000
      vertex -2.500000e+000 8.050000e+000 0.000000e+000
    endloop
  endfacet
  facet normal 0.000000e+000 0.000000e+000 1.000000e+000
    outer loop
      vertex -1.971082e+000 7.950000e+000 0.000000e+000
      vertex -1.300062e+000 8.050000e+000 0.000000e+000
      vertex -1.971882e+000 8.050000e+000 0.000000e+000
    endloop
  endfacet
  facet normal 0.000000e+000 0.000000e+000 1.000000e+000
    outer loop
      vertex 1.971882e+000 7.950000e+000 0.000000e+000
      vertex 2.500000e+000 8.050000e+000 0.000000e+000
      vertex 1.971082e+000 8.050000e+000 0.000000e+000
    endloop
  endfacet
  facet normal 0.000000e+000 0.000000e+000 1.000000e+000
    outer loop
      vertex 1.300062e+000 7.950000e+000 0.000000e+000
      vertex 1.971082e+000 8.050000e+000 0.000000e+000
      vertex 1.298805e+000 8.050000e+000 0.000000e+000
    endloop
  endfacet
  facet normal -0.000000e+000 0.000000e+000 1.000000e+000
    outer loop
      vertex 1.971882e+000 7.950000e+000 0.000000e+000
      vertex 2.500000e+000 7.950000e+000 0.000000e+000
      vertex 2.500000e+000 8.050000e+000 0.000000e+000
    endloop
  endfacet
  facet normal 0.000000e+000 0.000000e+000 1.000000e+000
    outer loop
      vertex 4.626856e-001 7.950000e+000 0.000000e+000
      vertex 1.298805e+000 8.050000e+000 0.000000e+000
      vertex 4.624420e-001 8.050000e+000 0.000000e+000
    endloop
  endfacet
  facet normal -0.000000e+000 0.000000e+000 1.000000e+000
    outer loop
      vertex 1.300062e+000 7.950000e+000 0.000000e+000
      vertex 1.971882e+000 7.950000e+000 0.000000e+000
      vertex 1.971082e+000 8.050000e+000 0.000000e+000
    endloop
  endfacet
  facet normal 0.000000e+000 0.000000e+000 1.000000e+000
    outer loop
      vertex -4.624420e-001 7.950000e+000 0.000000e+000
      vertex 4.624420e-001 8.050000e+000 0.000000e+000
      vertex -4.626856e-001 8.050000e+000 0.000000e+000
    endloop
  endfacet
  facet normal -0.000000e+000 0.000000e+000 1.000000e+000
    outer loop
      vertex 4.626856e-001 7.950000e+000 0.000000e+000
      vertex 1.300062e+000 7.950000e+000 0.000000e+000
      vertex 1.298805e+000 8.050000e+000 0.000000e+000
    endloop
  endfacet
  facet normal 0.000000e+000 0.000000e+000 1.000000e+000
    outer loop
      vertex -1.298805e+000 7.950000e+000 0.000000e+000
      vertex -4.626856e-001 8.050000e+000 0.000000e+000
      vertex -1.300062e+000 8.050000e+000 0.000000e+000
    endloop
  endfacet
  facet normal -0.000000e+000 0.000000e+000 1.000000e+000
    outer loop
      vertex -4.624420e-001 7.950000e+000 0.000000e+000
      vertex 4.626856e-001 7.950000e+000 0.000000e+000
      vertex 4.624420e-001 8.050000e+000 0.000000e+000
    endloop
  endfacet
  facet normal -0.000000e+000 0.000000e+000 1.000000e+000
    outer loop
      vertex -1.298805e+000 7.950000e+000 0.000000e+000
      vertex -4.624420e-001 7.950000e+000 0.000000e+000
      vertex -4.626856e-001 8.050000e+000 0.000000e+000
    endloop
  endfacet
  facet normal -0.000000e+000 -0.000000e+000 1.000000e+000
    outer loop
      vertex -1.971082e+000 7.950000e+000 0.000000e+000
      vertex -1.971882e+000 8.050000e+000 0.000000e+000
      vertex -2.500000e+000 7.950000e+000 0.000000e+000
    endloop
  endfacet
  facet normal -0.000000e+000 0.000000e+000 1.000000e+000
    outer loop
      vertex -1.971082e+000 7.950000e+000 0.000000e+000
      vertex -1.298805e+000 7.950000e+000 0.000000e+000
      vertex -1.300062e+000 8.050000e+000 0.000000e+000
    endloop
  endfacet
  facet normal -0.000000e+000 0.000000e+000 1.000000e+000
    outer loop
      vertex -2.500000e+000 5.950000e+000 0.000000e+000
      vertex -1.971882e+000 6.050000e+000 0.000000e+000
      vertex -2.500000e+000 6.050000e+000 0.000000e+000
    endloop
  endfacet
  facet normal 0.000000e+000 0.000000e+000 1.000000e+000
    outer loop
      vertex -1.971082e+000 5.950000e+000 0.000000e+000
      vertex -1.300062e+000 6.050000e+000 0.000000e+000
      vertex -1.971882e+000 6.050000e+000 0.000000e+000
    endloop
  endfacet
  facet normal 0.000000e+000 0.000000e+000 1.000000e+000
    outer loop
      vertex 1.971882e+000 5.950000e+000 0.000000e+000
      vertex 2.500000e+000 6.050000e+000 0.000000e+000
      vertex 1.971082e+000 6.050000e+000 0.000000e+000
    endloop
  endfacet
  facet normal 0.000000e+000 0.000000e+000 1.000000e+000
    outer loop
      vertex 1.300062e+000 5.950000e+000 0.000000e+000
      vertex 1.971082e+000 6.050000e+000 0.000000e+000
      vertex 1.298805e+000 6.050000e+000 0.000000e+000
    endloop
  endfacet
  facet normal -0.000000e+000 0.000000e+000 1.000000e+000
    outer loop
      vertex 1.971882e+000 5.950000e+000 0.000000e+000
      vertex 2.500000e+000 5.950000e+000 0.000000e+000
      vertex 2.500000e+000 6.050000e+000 0.000000e+000
    endloop
  endfacet
  facet normal 0.000000e+000 0.000000e+000 1.000000e+000
    outer loop
      vertex 4.626856e-001 5.950000e+000 0.000000e+000
      vertex 1.298805e+000 6.050000e+000 0.000000e+000
      vertex 4.624420e-001 6.050000e+000 0.000000e+000
    endloop
  endfacet
  facet normal -0.000000e+000 0.000000e+000 1.000000e+000
    outer loop
      vertex 1.300062e+000 5.950000e+000 0.000000e+000
      vertex 1.971882e+000 5.950000e+000 0.000000e+000
      vertex 1.971082e+000 6.050000e+000 0.000000e+000
    endloop
  endfacet
  facet normal 0.000000e+000 0.000000e+000 1.000000e+000
    outer loop
      vertex -4.624420e-001 5.950000e+000 0.000000e+000
      vertex 4.624420e-001 6.050000e+000 0.000000e+000
      vertex -4.626856e-001 6.050000e+000 0.000000e+000
    endloop
  endfacet
  facet normal -0.000000e+000 0.000000e+000 1.000000e+000
    outer loop
      vertex 4.626856e-001 5.950000e+000 0.000000e+000
      vertex 1.300062e+000 5.950000e+000 0.000000e+000
      vertex 1.298805e+000 6.050000e+000 0.000000e+000
    endloop
  endfacet
  facet normal 0.000000e+000 0.000000e+000 1.000000e+000
    outer loop
      vertex -1.298805e+000 5.950000e+000 0.000000e+000
      vertex -4.626856e-001 6.050000e+000 0.000000e+000
      vertex -1.300062e+000 6.050000e+000 0.000000e+000
    endloop
  endfacet
  facet normal -0.000000e+000 0.000000e+000 1.000000e+000
    outer loop
      vertex -4.624420e-001 5.950000e+000 0.000000e+000
      vertex 4.626856e-001 5.950000e+000 0.000000e+000
      vertex 4.624420e-001 6.050000e+000 0.000000e+000
    endloop
  endfacet
  facet normal -0.000000e+000 0.000000e+000 1.000000e+000
    outer loop
      vertex -1.298805e+000 5.950000e+000 0.000000e+000
      vertex -4.624420e-001 5.950000e+000 0.000000e+000
      vertex -4.626856e-001 6.050000e+000 0.000000e+000
    endloop
  endfacet
  facet normal -0.000000e+000 -0.000000e+000 1.000000e+000
    outer loop
      vertex -1.971082e+000 5.950000e+000 0.000000e+000
      vertex -1.971882e+000 6.050000e+000 0.000000e+000
      vertex -2.500000e+000 5.950000e+000 0.000000e+000
    endloop
  endfacet
  facet normal -0.000000e+000 0.000000e+000 1.000000e+000
    outer loop
      vertex -1.971082e+000 5.950000e+000 0.000000e+000
      vertex -1.298805e+000 5.950000e+000 0.000000e+000
      vertex -1.300062e+000 6.050000e+000 0.000000e+000
    endloop
  endfacet
  facet normal -0.000000e+000 0.000000e+000 1.000000e+000
    outer loop
      vertex -2.500000e+000 1.795000e+001 0.000000e+000
      vertex -1.971882e+000 1.805000e+001 0.000000e+000
      vertex -2.500000e+000 1.805000e+001 0.000000e+000
    endloop
  endfacet
  facet normal 0.000000e+000 0.000000e+000 1.000000e+000
    outer loop
      vertex -1.971082e+000 1.795000e+001 0.000000e+000
      vertex -1.300062e+000 1.805000e+001 0.000000e+000
      vertex -1.971882e+000 1.805000e+001 0.000000e+000
    endloop
  endfacet
  facet normal 0.000000e+000 0.000000e+000 1.000000e+000
    outer loop
      vertex 1.971882e+000 1.795000e+001 0.000000e+000
      vertex 2.500000e+000 1.805000e+001 0.000000e+000
      vertex 1.971082e+000 1.805000e+001 0.000000e+000
    endloop
  endfacet
  facet normal 0.000000e+000 0.000000e+000 1.000000e+000
    outer loop
      vertex 1.300062e+000 1.795000e+001 0.000000e+000
      vertex 1.971082e+000 1.805000e+001 0.000000e+000
      vertex 1.298805e+000 1.805000e+001 0.000000e+000
    endloop
  endfacet
  facet normal -0.000000e+000 0.000000e+000 1.000000e+000
    outer loop
      vertex 1.971882e+000 1.795000e+001 0.000000e+000
      vertex 2.500000e+000 1.795000e+001 0.000000e+000
      vertex 2.500000e+000 1.805000e+001 0.000000e+000
    endloop
  endfacet
  facet normal 0.000000e+000 0.000000e+000 1.000000e+000
    outer loop
      vertex 4.626856e-001 1.795000e+001 0.000000e+000
      vertex 1.298805e+000 1.805000e+001 0.000000e+000
      vertex 4.624420e-001 1.805000e+001 0.000000e+000
    endloop
  endfacet
  facet normal -0.000000e+000 0.000000e+000 1.000000e+000
    outer loop
      vertex 1.300062e+000 1.795000e+001 0.000000e+000
      vertex 1.971882e+000 1.795000e+001 0.000000e+000
      vertex 1.971082e+000 1.805000e+001 0.000000e+000
    endloop
  endfacet
  facet normal 0.000000e+000 0.000000e+000 1.000000e+000
    outer loop
      vertex -4.624420e-001 1.795000e+001 0.000000e+000
      vertex 4.624420e-001 1.805000e+001 0.000000e+000
      vertex -4.626856e-001 1.805000e+001 0.000000e+000
    endloop
  endfacet
  facet normal -0.000000e+000 0.000000e+000 1.000000e+000
    outer loop
      vertex 4.626856e-001 1.795000e+001 0.000000e+000
      vertex 1.300062e+000 1.795000e+001 0.000000e+000
      vertex 1.298805e+000 1.805000e+001 0.000000e+000
    endloop
  endfacet
  facet normal 0.000000e+000 0.000000e+000 1.000000e+000
    outer loop
      vertex -1.298805e+000 1.795000e+001 0.000000e+000
      vertex -4.626856e-001 1.805000e+001 0.000000e+000
      vertex -1.300062e+000 1.805000e+001 0.000000e+000
    endloop
  endfacet
  facet normal -0.000000e+000 0.000000e+000 1.000000e+000
    outer loop
      vertex -4.624420e-001 1.795000e+001 0.000000e+000
      vertex 4.626856e-001 1.795000e+001 0.000000e+000
      vertex 4.624420e-001 1.805000e+001 0.000000e+000
    endloop
  endfacet
  facet normal -0.000000e+000 0.000000e+000 1.000000e+000
    outer loop
      vertex -1.298805e+000 1.795000e+001 0.000000e+000
      vertex -4.624420e-001 1.795000e+001 0.000000e+000
      vertex -4.626856e-001 1.805000e+001 0.000000e+000
    endloop
  endfacet
  facet normal -0.000000e+000 -0.000000e+000 1.000000e+000
    outer loop
      vertex -1.971082e+000 1.795000e+001 0.000000e+000
      vertex -1.971882e+000 1.805000e+001 0.000000e+000
      vertex -2.500000e+000 1.795000e+001 0.000000e+000
    endloop
  endfacet
  facet normal -0.000000e+000 0.000000e+000 1.000000e+000
    outer loop
      vertex -1.971082e+000 1.795000e+001 0.000000e+000
      vertex -1.298805e+000 1.795000e+001 0.000000e+000
      vertex -1.300062e+000 1.805000e+001 0.000000e+000
    endloop
  endfacet
  facet normal -0.000000e+000 0.000000e+000 1.000000e+000
    outer loop
      vertex -2.500000e+000 1.595000e+001 0.000000e+000
      vertex -1.971882e+000 1.605000e+001 0.000000e+000
      vertex -2.500000e+000 1.605000e+001 0.000000e+000
    endloop
  endfacet
  facet normal 0.000000e+000 0.000000e+000 1.000000e+000
    outer loop
      vertex -1.971082e+000 1.595000e+001 0.000000e+000
      vertex -1.300062e+000 1.605000e+001 0.000000e+000
      vertex -1.971882e+000 1.605000e+001 0.000000e+000
    endloop
  endfacet
  facet normal 0.000000e+000 0.000000e+000 1.000000e+000
    outer loop
      vertex 1.971882e+000 1.595000e+001 0.000000e+000
      vertex 2.500000e+000 1.605000e+001 0.000000e+000
      vertex 1.971082e+000 1.605000e+001 0.000000e+000
    endloop
  endfacet
  facet normal 0.000000e+000 0.000000e+000 1.000000e+000
    outer loop
      vertex 1.300062e+000 1.595000e+001 0.000000e+000
      vertex 1.971082e+000 1.605000e+001 0.000000e+000
      vertex 1.298805e+000 1.605000e+001 0.000000e+000
    endloop
  endfacet
  facet normal -0.000000e+000 0.000000e+000 1.000000e+000
    outer loop
      vertex 1.971882e+000 1.595000e+001 0.000000e+000
      vertex 2.500000e+000 1.595000e+001 0.000000e+000
      vertex 2.500000e+000 1.605000e+001 0.000000e+000
    endloop
  endfacet
  facet normal 0.000000e+000 0.000000e+000 1.000000e+000
    outer loop
      vertex 4.626856e-001 1.595000e+001 0.000000e+000
      vertex 1.298805e+000 1.605000e+001 0.000000e+000
      vertex 4.624420e-001 1.605000e+001 0.000000e+000
    endloop
  endfacet
  facet normal -0.000000e+000 0.000000e+000 1.000000e+000
    outer loop
      vertex 1.300062e+000 1.595000e+001 0.000000e+000
      vertex 1.971882e+000 1.595000e+001 0.000000e+000
      vertex 1.971082e+000 1.605000e+001 0.000000e+000
    endloop
  endfacet
  facet normal 0.000000e+000 0.000000e+000 1.000000e+000
    outer loop
      vertex -4.624420e-001 1.595000e+001 0.000000e+000
      vertex 4.624420e-001 1.605000e+001 0.000000e+000
      vertex -4.626856e-001 1.605000e+001 0.000000e+000
    endloop
  endfacet
  facet normal -0.000000e+000 0.000000e+000 1.000000e+000
    outer loop
      vertex 4.626856e-001 1.595000e+001 0.000000e+000
      vertex 1.300062e+000 1.595000e+001 0.000000e+000
      vertex 1.298805e+000 1.605000e+001 0.000000e+000
    endloop
  endfacet
  facet normal 0.000000e+000 0.000000e+000 1.000000e+000
    outer loop
      vertex -1.298805e+000 1.595000e+001 0.000000e+000
      vertex -4.626856e-001 1.605000e+001 0.000000e+000
      vertex -1.300062e+000 1.605000e+001 0.000000e+000
    endloop
  endfacet
  facet normal -0.000000e+000 0.000000e+000 1.000000e+000
    outer loop
      vertex -4.624420e-001 1.595000e+001 0.000000e+000
      vertex 4.626856e-001 1.595000e+001 0.000000e+000
      vertex 4.624420e-001 1.605000e+001 0.000000e+000
    endloop
  endfacet
  facet normal -0.000000e+000 0.000000e+000 1.000000e+000
    outer loop
      vertex -1.298805e+000 1.595000e+001 0.000000e+000
      vertex -4.624420e-001 1.595000e+001 0.000000e+000
      vertex -4.626856e-001 1.605000e+001 0.000000e+000
    endloop
  endfacet
  facet normal -0.000000e+000 -0.000000e+000 1.000000e+000
    outer loop
      vertex -1.971082e+000 1.595000e+001 0.000000e+000
      vertex -1.971882e+000 1.605000e+001 0.000000e+000
      vertex -2.500000e+000 1.595000e+001 0.000000e+000
    endloop
  endfacet
  facet normal -0.000000e+000 0.000000e+000 1.000000e+000
    outer loop
      vertex -1.971082e+000 1.595000e+001 0.000000e+000
      vertex -1.298805e+000 1.595000e+001 0.000000e+000
      vertex -1.300062e+000 1.605000e+001 0.000000e+000
    endloop
  endfacet
  facet normal -0.000000e+000 0.000000e+000 1.000000e+000
    outer loop
      vertex -2.500000e+000 1.950000e+000 0.000000e+000
      vertex -1.971882e+000 2.050000e+000 0.000000e+000
      vertex -2.500000e+000 2.050000e+000 0.000000e+000
    endloop
  endfacet
  facet normal 0.000000e+000 0.000000e+000 1.000000e+000
    outer loop
      vertex -1.971082e+000 1.950000e+000 0.000000e+000
      vertex -1.300062e+000 2.050000e+000 0.000000e+000
      vertex -1.971882e+000 2.050000e+000 0.000000e+000
    endloop
  endfacet
  facet normal 0.000000e+000 0.000000e+000 1.000000e+000
    outer loop
      vertex 1.971882e+000 1.950000e+000 0.000000e+000
      vertex 2.500000e+000 2.050000e+000 0.000000e+000
      vertex 1.971082e+000 2.050000e+000 0.000000e+000
    endloop
  endfacet
  facet normal 0.000000e+000 0.000000e+000 1.000000e+000
    outer loop
      vertex 1.300062e+000 1.950000e+000 0.000000e+000
      vertex 1.971082e+000 2.050000e+000 0.000000e+000
      vertex 1.298805e+000 2.050000e+000 0.000000e+000
    endloop
  endfacet
  facet normal -0.000000e+000 0.000000e+000 1.000000e+000
    outer loop
      vertex 1.971882e+000 1.950000e+000 0.000000e+000
      vertex 2.500000e+000 1.950000e+000 0.000000e+000
      vertex 2.500000e+000 2.050000e+000 0.000000e+000
    endloop
  endfacet
  facet normal 0.000000e+000 0.000000e+000 1.000000e+000
    outer loop
      vertex 4.626856e-001 1.950000e+000 0.000000e+000
      vertex 1.298805e+000 2.050000e+000 0.000000e+000
      vertex 4.624420e-001 2.050000e+000 0.000000e+000
    endloop
  endfacet
  facet normal -0.000000e+000 0.000000e+000 1.000000e+000
    outer loop
      vertex 1.300062e+000 1.950000e+000 0.000000e+000
      vertex 1.971882e+000 1.950000e+000 0.000000e+000
      vertex 1.971082e+000 2.050000e+000 0.000000e+000
    endloop
  endfacet
  facet normal 0.000000e+000 0.000000e+000 1.000000e+000
    outer loop
      vertex -4.624420e-001 1.950000e+000 0.000000e+000
      vertex 4.624420e-001 2.050000e+000 0.000000e+000
      vertex -4.626856e-001 2.050000e+000 0.000000e+000
    endloop
  endfacet
  facet normal -0.000000e+000 0.000000e+000 1.000000e+000
    outer loop
      vertex 4.626856e-001 1.950000e+000 0.000000e+000
      vertex 1.300062e+000 1.950000e+000 0.000000e+000
      vertex 1.298805e+000 2.050000e+000 0.000000e+000
    endloop
  endfacet
  facet normal 0.000000e+000 0.000000e+000 1.000000e+000
    outer loop
      vertex -1.298805e+000 1.950000e+000 0.000000e+000
      vertex -4.626856e-001 2.050000e+000 0.000000e+000
      vertex -1.300062e+000 2.050000e+000 0.000000e+000
    endloop
  endfacet
  facet normal -0.000000e+000 0.000000e+000 1.000000e+000
    outer loop
      vertex -4.624420e-001 1.950000e+000 0.000000e+000
      vertex 4.626856e-001 1.950000e+000 0.000000e+000
      vertex 4.624420e-001 2.050000e+000 0.000000e+000
    endloop
  endfacet
  facet normal -0.000000e+000 0.000000e+000 1.000000e+000
    outer loop
      vertex -1.298805e+000 1.950000e+000 0.000000e+000
      vertex -4.624420e-001 1.950000e+000 0.000000e+000
      vertex -4.626856e-001 2.050000e+000 0.000000e+000
    endloop
  endfacet
  facet normal -0.000000e+000 -0.000000e+000 1.000000e+000
    outer loop
      vertex -1.971082e+000 1.950000e+000 0.000000e+000
      vertex -1.971882e+000 2.050000e+000 0.000000e+000
      vertex -2.500000e+000 1.950000e+000 0.000000e+000
    endloop
  endfacet
  facet normal -0.000000e+000 0.000000e+000 1.000000e+000
    outer loop
      vertex -1.971082e+000 1.950000e+000 0.000000e+000
      vertex -1.298805e+000 1.950000e+000 0.000000e+000
      vertex -1.300062e+000 2.050000e+000 0.000000e+000
    endloop
  endfacet
  facet normal -0.000000e+000 0.000000e+000 1.000000e+000
    outer loop
      vertex -2.500000e+000 1.395000e+001 0.000000e+000
      vertex -1.971882e+000 1.405000e+001 0.000000e+000
      vertex -2.500000e+000 1.405000e+001 0.000000e+000
    endloop
  endfacet
  facet normal 0.000000e+000 0.000000e+000 1.000000e+000
    outer loop
      vertex -1.971082e+000 1.395000e+001 0.000000e+000
      vertex -1.300062e+000 1.405000e+001 0.000000e+000
      vertex -1.971882e+000 1.405000e+001 0.000000e+000
    endloop
  endfacet
  facet normal 0.000000e+000 0.000000e+000 1.000000e+000
    outer loop
      vertex 1.971882e+000 1.395000e+001 0.000000e+000
      vertex 2.500000e+000 1.405000e+001 0.000000e+000
      vertex 1.971082e+000 1.405000e+001 0.000000e+000
    endloop
  endfacet
  facet normal 0.000000e+000 0.000000e+000 1.000000e+000
    outer loop
      vertex 1.300062e+000 1.395000e+001 0.000000e+000
      vertex 1.971082e+000 1.405000e+001 0.000000e+000
      vertex 1.298805e+000 1.405000e+001 0.000000e+000
    endloop
  endfacet
  facet normal -0.000000e+000 0.000000e+000 1.000000e+000
    outer loop
      vertex 1.971882e+000 1.395000e+001 0.000000e+000
      vertex 2.500000e+000 1.395000e+001 0.000000e+000
      vertex 2.500000e+000 1.405000e+001 0.000000e+000
    endloop
  endfacet
  facet normal 0.000000e+000 0.000000e+000 1.000000e+000
    outer loop
      vertex 4.626856e-001 1.395000e+001 0.000000e+000
      vertex 1.298805e+000 1.405000e+001 0.000000e+000
      vertex 4.624420e-001 1.405000e+001 0.000000e+000
    endloop
  endfacet
  facet normal -0.000000e+000 0.000000e+000 1.000000e+000
    outer loop
      vertex 1.300062e+000 1.395000e+001 0.000000e+000
      vertex 1.971882e+000 1.395000e+001 0.000000e+000
      vertex 1.971082e+000 1.405000e+001 0.000000e+000
    endloop
  endfacet
  facet normal 0.000000e+000 0.000000e+000 1.000000e+000
    outer loop
      vertex -4.624420e-001 1.395000e+001 0.000000e+000
      vertex 4.624420e-001 1.405000e+001 0.000000e+000
      vertex -4.626856e-001 1.405000e+001 0.000000e+000
    endloop
  endfacet
  facet normal -0.000000e+000 0.000000e+000 1.000000e+000
    outer loop
      vertex 4.626856e-001 1.395000e+001 0.000000e+000
      vertex 1.300062e+000 1.395000e+001 0.000000e+000
      vertex 1.298805e+000 1.405000e+001 0.000000e+000
    endloop
  endfacet
  facet normal 0.000000e+000 0.000000e+000 1.000000e+000
    outer loop
      vertex -1.298805e+000 1.395000e+001 0.000000e+000
      vertex -4.626856e-001 1.405000e+001 0.000000e+000
      vertex -1.300062e+000 1.405000e+001 0.000000e+000
    endloop
  endfacet
  facet normal -0.000000e+000 0.000000e+000 1.000000e+000
    outer loop
      vertex -4.624420e-001 1.395000e+001 0.000000e+000
      vertex 4.626856e-001 1.395000e+001 0.000000e+000
      vertex 4.624420e-001 1.405000e+001 0.000000e+000
    endloop
  endfacet
  facet normal -0.000000e+000 0.000000e+000 1.000000e+000
    outer loop
      vertex -1.298805e+000 1.395000e+001 0.000000e+000
      vertex -4.624420e-001 1.395000e+001 0.000000e+000
      vertex -4.626856e-001 1.405000e+001 0.000000e+000
    endloop
  endfacet
  facet normal -0.000000e+000 -0.000000e+000 1.000000e+000
    outer loop
      vertex -1.971082e+000 1.395000e+001 0.000000e+000
      vertex -1.971882e+000 1.405000e+001 0.000000e+000
      vertex -2.500000e+000 1.395000e+001 0.000000e+000
    endloop
  endfacet
  facet normal -0.000000e+000 0.000000e+000 1.000000e+000
    outer loop
      vertex -1.971082e+000 1.395000e+001 0.000000e+000
      vertex -1.298805e+000 1.395000e+001 0.000000e+000
      vertex -1.300062e+000 1.405000e+001 0.000000e+000
    endloop
  endfacet
  facet normal -0.000000e+000 0.000000e+000 1.000000e+000
    outer loop
      vertex -2.500000e+000 1.995000e+001 0.000000e+000
      vertex -1.971882e+000 2.005000e+001 0.000000e+000
      vertex -2.500000e+000 2.005000e+001 0.000000e+000
    endloop
  endfacet
  facet normal 0.000000e+000 0.000000e+000 1.000000e+000
    outer loop
      vertex -1.971082e+000 1.995000e+001 0.000000e+000
      vertex -1.300062e+000 2.005000e+001 0.000000e+000
      vertex -1.971882e+000 2.005000e+001 0.000000e+000
    endloop
  endfacet
  facet normal 0.000000e+000 0.000000e+000 1.000000e+000
    outer loop
      vertex 1.971882e+000 1.995000e+001 0.000000e+000
      vertex 2.500000e+000 2.005000e+001 0.000000e+000
      vertex 1.971082e+000 2.005000e+001 0.000000e+000
    endloop
  endfacet
  facet normal 0.000000e+000 0.000000e+000 1.000000e+000
    outer loop
      vertex 1.300062e+000 1.995000e+001 0.000000e+000
      vertex 1.971082e+000 2.005000e+001 0.000000e+000
      vertex 1.298805e+000 2.005000e+001 0.000000e+000
    endloop
  endfacet
  facet normal -0.000000e+000 0.000000e+000 1.000000e+000
    outer loop
      vertex 1.971882e+000 1.995000e+001 0.000000e+000
      vertex 2.500000e+000 1.995000e+001 0.000000e+000
      vertex 2.500000e+000 2.005000e+001 0.000000e+000
    endloop
  endfacet
  facet normal 0.000000e+000 0.000000e+000 1.000000e+000
    outer loop
      vertex 4.626856e-001 1.995000e+001 0.000000e+000
      vertex 1.298805e+000 2.005000e+001 0.000000e+000
      vertex 4.624420e-001 2.005000e+001 0.000000e+000
    endloop
  endfacet
  facet normal -0.000000e+000 0.000000e+000 1.000000e+000
    outer loop
      vertex 1.300062e+000 1.995000e+001 0.000000e+000
      vertex 1.971882e+000 1.995000e+001 0.000000e+000
      vertex 1.971082e+000 2.005000e+001 0.000000e+000
    endloop
  endfacet
  facet normal 0.000000e+000 0.000000e+000 1.000000e+000
    outer loop
      vertex -4.624420e-001 1.995000e+001 0.000000e+000
      vertex 4.624420e-001 2.005000e+001 0.000000e+000
      vertex -4.626856e-001 2.005000e+001 0.000000e+000
    endloop
  endfacet
  facet normal -0.000000e+000 0.000000e+000 1.000000e+000
    outer loop
      vertex 4.626856e-001 1.995000e+001 0.000000e+000
      vertex 1.300062e+000 1.995000e+001 0.000000e+000
      vertex 1.298805e+000 2.005000e+001 0.000000e+000
    endloop
  endfacet
  facet normal 0.000000e+000 0.000000e+000 1.000000e+000
    outer loop
      vertex -1.298805e+000 1.995000e+001 0.000000e+000
      vertex -4.626856e-001 2.005000e+001 0.000000e+000
      vertex -1.300062e+000 2.005000e+001 0.000000e+000
    endloop
  endfacet
  facet normal -0.000000e+000 0.000000e+000 1.000000e+000
    outer loop
      vertex -4.624420e-001 1.995000e+001 0.000000e+000
      vertex 4.626856e-001 1.995000e+001 0.000000e+000
      vertex 4.624420e-001 2.005000e+001 0.000000e+000
    endloop
  endfacet
  facet normal -0.000000e+000 0.000000e+000 1.000000e+000
    outer loop
      vertex -1.298805e+000 1.995000e+001 0.000000e+000
      vertex -4.624420e-001 1.995000e+001 0.000000e+000
      vertex -4.626856e-001 2.005000e+001 0.000000e+000
    endloop
  endfacet
  facet normal -0.000000e+000 -0.000000e+000 1.000000e+000
    outer loop
      vertex -1.971082e+000 1.995000e+001 0.000000e+000
      vertex -1.971882e+000 2.005000e+001 0.000000e+000
      vertex -2.500000e+000 1.995000e+001 0.000000e+000
    endloop
  endfacet
  facet normal -0.000000e+000 0.000000e+000 1.000000e+000
    outer loop
      vertex -1.971082e+000 1.995000e+001 0.000000e+000
      vertex -1.298805e+000 1.995000e+001 0.000000e+000
      vertex -1.300062e+000 2.005000e+001 0.000000e+000
    endloop
  endfacet
  facet normal -0.000000e+000 0.000000e+000 1.000000e+000
    outer loop
      vertex -2.500000e+000 1.195000e+001 0.000000e+000
      vertex -1.971882e+000 1.205000e+001 0.000000e+000
      vertex -2.500000e+000 1.205000e+001 0.000000e+000
    endloop
  endfacet
  facet normal 0.000000e+000 0.000000e+000 1.000000e+000
    outer loop
      vertex -1.971082e+000 1.195000e+001 0.000000e+000
      vertex -1.300062e+000 1.205000e+001 0.000000e+000
      vertex -1.971882e+000 1.205000e+001 0.000000e+000
    endloop
  endfacet
  facet normal 0.000000e+000 0.000000e+000 1.000000e+000
    outer loop
      vertex 1.971882e+000 1.195000e+001 0.000000e+000
      vertex 2.500000e+000 1.205000e+001 0.000000e+000
      vertex 1.971082e+000 1.205000e+001 0.000000e+000
    endloop
  endfacet
  facet normal 0.000000e+000 0.000000e+000 1.000000e+000
    outer loop
      vertex 1.300062e+000 1.195000e+001 0.000000e+000
      vertex 1.971082e+000 1.205000e+001 0.000000e+000
      vertex 1.298805e+000 1.205000e+001 0.000000e+000
    endloop
  endfacet
  facet normal -0.000000e+000 0.000000e+000 1.000000e+000
    outer loop
      vertex 1.971882e+000 1.195000e+001 0.000000e+000
      vertex 2.500000e+000 1.195000e+001 0.000000e+000
      vertex 2.500000e+000 1.205000e+001 0.000000e+000
    endloop
  endfacet
  facet normal 0.000000e+000 0.000000e+000 1.000000e+000
    outer loop
      vertex 4.626856e-001 1.195000e+001 0.000000e+000
      vertex 1.298805e+000 1.205000e+001 0.000000e+000
      vertex 4.624420e-001 1.205000e+001 0.000000e+000
    endloop
  endfacet
  facet normal -0.000000e+000 0.000000e+000 1.000000e+000
    outer loop
      vertex 1.300062e+000 1.195000e+001 0.000000e+000
      vertex 1.971882e+000 1.195000e+001 0.000000e+000
      vertex 1.971082e+000 1.205000e+001 0.000000e+000
    endloop
  endfacet
  facet normal 0.000000e+000 0.000000e+000 1.000000e+000
    outer loop
      vertex -4.624420e-001 1.195000e+001 0.000000e+000
      vertex 4.624420e-001 1.205000e+001 0.000000e+000
      vertex -4.626856e-001 1.205000e+001 0.000000e+000
    endloop
  endfacet
  facet normal -0.000000e+000 0.000000e+000 1.000000e+000
    outer loop
      vertex 4.626856e-001 1.195000e+001 0.000000e+000
      vertex 1.300062e+000 1.195000e+001 0.000000e+000
      vertex 1.298805e+000 1.205000e+001 0.000000e+000
    endloop
  endfacet
  facet normal 0.000000e+000 0.000000e+000 1.000000e+000
    outer loop
      vertex -1.298805e+000 1.195000e+001 0.000000e+000
      vertex -4.626856e-001 1.205000e+001 0.000000e+000
      vertex -1.300062e+000 1.205000e+001 0.000000e+000
    endloop
  endfacet
  facet normal -0.000000e+000 0.000000e+000 1.000000e+000
    outer loop
      vertex -4.624420e-001 1.195000e+001 0.000000e+000
      vertex 4.626856e-001 1.195000e+001 0.000000e+000
      vertex 4.624420e-001 1.205000e+001 0.000000e+000
    endloop
  endfacet
  facet normal -0.000000e+000 0.000000e+000 1.000000e+000
    outer loop
      vertex -1.298805e+000 1.195000e+001 0.000000e+000
      vertex -4.624420e-001 1.195000e+001 0.000000e+000
      vertex -4.626856e-001 1.205000e+001 0.000000e+000
    endloop
  endfacet
  facet normal -0.000000e+000 -0.000000e+000 1.000000e+000
    outer loop
      vertex -1.971082e+000 1.195000e+001 0.000000e+000
      vertex -1.971882e+000 1.205000e+001 0.000000e+000
      vertex -2.500000e+000 1.195000e+001 0.000000e+000
    endloop
  endfacet
  facet normal -0.000000e+000 0.000000e+000 1.000000e+000
    outer loop
      vertex -1.971082e+000 1.195000e+001 0.000000e+000
      vertex -1.298805e+000 1.195000e+001 0.000000e+000
      vertex -1.300062e+000 1.205000e+001 0.000000e+000
    endloop
  endfacet
  facet normal -0.000000e+000 0.000000e+000 1.000000e+000
    outer loop
      vertex -2.500000e+000 -5.000000e-002 0.000000e+000
      vertex -1.971882e+000 5.000000e-002 0.000000e+000
      vertex -2.500000e+000 5.000000e-002 0.000000e+000
    endloop
  endfacet
  facet normal 0.000000e+000 0.000000e+000 1.000000e+000
    outer loop
      vertex -1.971082e+000 -5.000000e-002 0.000000e+000
      vertex -1.300062e+000 5.000000e-002 0.000000e+000
      vertex -1.971882e+000 5.000000e-002 0.000000e+000
    endloop
  endfacet
  facet normal 0.000000e+000 0.000000e+000 1.000000e+000
    outer loop
      vertex 1.971882e+000 -5.000000e-002 0.000000e+000
      vertex 2.500000e+000 5.000000e-002 0.000000e+000
      vertex 1.971082e+000 5.000000e-002 0.000000e+000
    endloop
  endfacet
  facet normal 0.000000e+000 0.000000e+000 1.000000e+000
    outer loop
      vertex 1.300062e+000 -5.000000e-002 0.000000e+000
      vertex 1.971082e+000 5.000000e-002 0.000000e+000
      vertex 1.298805e+000 5.000000e-002 0.000000e+000
    endloop
  endfacet
  facet normal -0.000000e+000 0.000000e+000 1.000000e+000
    outer loop
      vertex 1.971882e+000 -5.000000e-002 0.000000e+000
      vertex 2.500000e+000 -5.000000e-002 0.000000e+000
      vertex 2.500000e+000 5.000000e-002 0.000000e+000
    endloop
  endfacet
  facet normal 0.000000e+000 0.000000e+000 1.000000e+000
    outer loop
      vertex 4.626856e-001 -5.000000e-002 0.000000e+000
      vertex 1.298805e+000 5.000000e-002 0.000000e+000
      vertex 4.624420e-001 5.000000e-002 0.000000e+000
    endloop
  endfacet
  facet normal -0.000000e+000 0.000000e+000 1.000000e+000
    outer loop
      vertex 1.300062e+000 -5.000000e-002 0.000000e+000
      vertex 1.971882e+000 -5.000000e-002 0.000000e+000
      vertex 1.971082e+000 5.000000e-002 0.000000e+000
    endloop
  endfacet
  facet normal 0.000000e+000 0.000000e+000 1.000000e+000
    outer loop
      vertex -4.624420e-001 -5.000000e-002 0.000000e+000
      vertex 4.624420e-001 5.000000e-002 0.000000e+000
      vertex -4.626856e-001 5.000000e-002 0.000000e+000
    endloop
  endfacet
  facet normal -0.000000e+000 0.000000e+000 1.000000e+000
    outer loop
      vertex 4.626856e-001 -5.000000e-002 0.000000e+000
      vertex 1.300062e+000 -5.000000e-002 0.000000e+000
      vertex 1.298805e+000 5.000000e-002 0.000000e+000
    endloop
  endfacet
  facet normal 0.000000e+000 0.000000e+000 1.000000e+000
    outer loop
      vertex -1.298805e+000 -5.000000e-002 0.000000e+000
      vertex -4.626856e-001 5.000000e-002 0.000000e+000
      vertex -1.300062e+000 5.000000e-002 0.000000e+000
    endloop
  endfacet
  facet normal -0.000000e+000 0.000000e+000 1.000000e+000
    outer loop
      vertex -4.624420e-001 -5.000000e-002 0.000000e+000
      vertex 4.626856e-001 -5.000000e-002 0.000000e+000
      vertex 4.624420e-001 5.000000e-002 0.000000e+000
    endloop
  endfacet
  facet normal -0.000000e+000 0.000000e+000 1.000000e+000
    outer loop
      vertex -1.298805e+000 -5.000000e-002 0.000000e+000
      vertex -4.624420e-001 -5.000000e-002 0.000000e+000
      vertex -4.626856e-001 5.000000e-002 0.000000e+000
    endloop
  endfacet
  facet normal -0.000000e+000 -0.000000e+000 1.000000e+000
    outer loop
      vertex -1.971082e+000 -5.000000e-002 0.000000e+000
      vertex -1.971882e+000 5.000000e-002 0.000000e+000
      vertex -2.500000e+000 -5.000000e-002 0.000000e+000
    endloop
  endfacet
  facet normal -0.000000e+000 0.000000e+000 1.000000e+000
    outer loop
      vertex -1.971082e+000 -5.000000e-002 0.000000e+000
      vertex -1.298805e+000 -5.000000e-002 0.000000e+000
      vertex -1.300062e+000 5.000000e-002 0.000000e+000
    endloop
  endfacet
  facet normal -0.000000e+000 0.000000e+000 1.000000e+000
    outer loop
      vertex -2.500000e+000 3.950000e+000 0.000000e+000
      vertex -1.971882e+000 4.050000e+000 0.000000e+000
      vertex -2.500000e+000 4.050000e+000 0.000000e+000
    endloop
  endfacet
  facet normal 0.000000e+000 0.000000e+000 1.000000e+000
    outer loop
      vertex -1.971082e+000 3.950000e+000 0.000000e+000
      vertex -1.300062e+000 4.050000e+000 0.000000e+000
      vertex -1.971882e+000 4.050000e+000 0.000000e+000
    endloop
  endfacet
  facet normal 0.000000e+000 0.000000e+000 1.000000e+000
    outer loop
      vertex 1.971882e+000 3.950000e+000 0.000000e+000
      vertex 2.500000e+000 4.050000e+000 0.000000e+000
      vertex 1.971082e+000 4.050000e+000 0.000000e+000
    endloop
  endfacet
  facet normal 0.000000e+000 0.000000e+000 1.000000e+000
    outer loop
      vertex 1.300062e+000 3.950000e+000 0.000000e+000
      vertex 1.971082e+000 4.050000e+000 0.000000e+000
      vertex 1.298805e+000 4.050000e+000 0.000000e+000
    endloop
  endfacet
  facet normal -0.000000e+000 0.000000e+000 1.000000e+000
    outer loop
      vertex 1.971882e+000 3.950000e+000 0.000000e+000
      vertex 2.500000e+000 3.950000e+000 0.000000e+000
      vertex 2.500000e+000 4.050000e+000 0.000000e+000
    endloop
  endfacet
  facet normal 0.000000e+000 0.000000e+000 1.000000e+000
    outer loop
      vertex 4.626856e-001 3.950000e+000 0.000000e+000
      vertex 1.298805e+000 4.050000e+000 0.000000e+000
      vertex 4.624420e-001 4.050000e+000 0.000000e+000
    endloop
  endfacet
  facet normal -0.000000e+000 0.000000e+000 1.000000e+000
    outer loop
      vertex 1.300062e+000 3.950000e+000 0.000000e+000
      vertex 1.971882e+000 3.950000e+000 0.000000e+000
      vertex 1.971082e+000 4.050000e+000 0.000000e+000
    endloop
  endfacet
  facet normal 0.000000e+000 0.000000e+000 1.000000e+000
    outer loop
      vertex -4.624420e-001 3.950000e+000 0.000000e+000
      vertex 4.624420e-001 4.050000e+000 0.000000e+000
      vertex -4.626856e-001 4.050000e+000 0.000000e+000
    endloop
  endfacet
  facet normal -0.000000e+000 0.000000e+000 1.000000e+000
    outer loop
      vertex 4.626856e-001 3.950000e+000 0.000000e+000
      vertex 1.300062e+000 3.950000e+000 0.000000e+000
      vertex 1.298805e+000 4.050000e+000 0.000000e+000
    endloop
  endfacet
  facet normal 0.000000e+000 0.000000e+000 1.000000e+000
    outer loop
      vertex -1.298805e+000 3.950000e+000 0.000000e+000
      vertex -4.626856e-001 4.050000e+000 0.000000e+000
      vertex -1.300062e+000 4.050000e+000 0.000000e+000
    endloop
  endfacet
  facet normal -0.000000e+000 0.000000e+000 1.000000e+000
    outer loop
      vertex -4.624420e-001 3.950000e+000 0.000000e+000
      vertex 4.626856e-001 3.950000e+000 0.000000e+000
      vertex 4.624420e-001 4.050000e+000 0.000000e+000
    endloop
  endfacet
  facet normal -0.000000e+000 0.000000e+000 1.000000e+000
    outer loop
      vertex -1.298805e+000 3.950000e+000 0.000000e+000
      vertex -4.624420e-001 3.950000e+000 0.000000e+000
      vertex -4.626856e-001 4.050000e+000 0.000000e+000
    endloop
  endfacet
  facet normal -0.000000e+000 -0.000000e+000 1.000000e+000
    outer loop
      vertex -1.971082e+000 3.950000e+000 0.000000e+000
      vertex -1.971882e+000 4.050000e+000 0.000000e+000
      vertex -2.500000e+000 3.950000e+000 0.000000e+000
    endloop
  endfacet
  facet normal -0.000000e+000 0.000000e+000 1.000000e+000
    outer loop
      vertex -1.971082e+000 3.950000e+000 0.000000e+000
      vertex -1.298805e+000 3.950000e+000 0.000000e+000
      vertex -1.300062e+000 4.050000e+000 0.000000e+000
    endloop
  endfacet
endsolid OBJECT
